<svg version="1.1" id="Layer_1" xmlns:x="ns_extend;" xmlns:i="ns_ai;" xmlns:graph="ns_graphs;" xmlns="http://www.w3.org/2000/svg" xmlns:xlink="http://www.w3.org/1999/xlink" x="0px" y="0px" viewBox="0 0 160.7 65" style="enable-background:new 0 0 160.7 65;" xml:space="preserve">
 <style type="text/css">
  .st0{fill:#2A55E5;}
	.st1{fill:url(#SVGID_1_);}
	.st2{fill:url(#SVGID_2_);}
	.st3{fill:url(#SVGID_3_);}
	.st4{fill:url(#SVGID_4_);}
	.st5{fill:#9E9E9E;}
	.st6{fill:#FFC200;}
 </style>
 <metadata>
  <sfw xmlns="ns_sfw;">
   <slices>
   </slices>
   <sliceSourceBounds bottomLeftOrigin="true" height="65" width="160.7" x="-18" y="39.9">
   </sliceSourceBounds>
  </sfw>
 </metadata>
 <g>
  <path class="st0" d="M26.6,5l0.4-2.9c0.1-0.5-0.1-0.9-0.4-1.3c-0.3-0.3-0.7-0.5-1.2-0.5H8.1c-0.8,0-1.4,0.6-1.5,1.3L1.8,31.3
		c-0.1,0.5,0.1,0.9,0.4,1.3c0.3,0.3,0.7,0.6,1.2,0.6h4c0.8,0,1.4-0.6,1.5-1.3l1.8-11.5h10c0.8,0,1.4-0.6,1.5-1.3l0.4-2.5
		c0.1-0.5-0.1-0.9-0.4-1.3c-0.3-0.4-0.7-0.6-1.2-0.6h-9.4l1.2-8.3h12.1C25.9,6.3,26.5,5.8,26.6,5z M118.3,14.9l-0.1,0
		c-1.1-0.3-2.3-0.5-3.7-0.5c-2.2,0-4,0.9-5.1,2.7c-1.1,1.8-1.7,3.8-1.7,5.9c0,1.4,0.2,2.5,0.7,3.4c0.5,0.9,1.2,1.4,2.1,1.4
		c1,0,2.1-0.6,3.4-1.9c1.2-1.2,2.4-2.7,3.4-4.3L118.3,14.9z M125.6,11.5l-3.2,20.4c-0.1,0.8-0.8,1.3-1.5,1.3h-2.4
		c-0.4,0-0.8-0.2-1.1-0.5c-0.3-0.3-0.5-0.7-0.4-1.1l0.1-2.5l-0.3,0.3c0,0-0.9,1-2,1.8c-1.6,1.2-3.3,1.9-3.5,2c-1,0.4-2,0.5-3.1,0.5
		c-2.4,0-4.2-0.9-5.5-2.6c-1.3-1.7-1.9-4.1-1.9-6.9c0-1.5,0.1-2.9,0.4-4.3c0.3-1.4,0.8-2.8,1.5-4.1c0.7-1.4,1.6-2.6,2.7-3.6
		c1.1-1,2.5-1.9,4.2-2.5c1.7-0.6,3.7-1,5.8-1c2.6,0,5.6,0.3,9,1C125.2,9.9,125.7,10.7,125.6,11.5z M142.7,9
		c-1.6,0.4-3.2,1.4-4.2,2.1c-1.2,0.9-2.9,2.7-2.9,2.7l-0.3,0.3l0.1-3.2c0-0.4-0.1-0.8-0.4-1.2c-0.3-0.3-0.7-0.5-1.1-0.5h-2.4
		c-0.8,0-1.4,0.5-1.5,1.3l-3.3,20.8c-0.1,0.5,0.1,0.9,0.4,1.3c0.3,0.3,0.7,0.5,1.2,0.5h3.7c0.8,0,1.4-0.6,1.5-1.3l1.7-11.1
		c1-1.4,2.3-2.6,3.8-3.6c1.2-0.7,2.3-1.2,3.5-1.4c0.6-0.1,1.2-0.6,1.3-1.3l0.7-3.8c0.1-0.5-0.1-1-0.5-1.4C143.7,9,143.2,8.9,142.7,9
		z M68.3,19.4c0-1.4-0.2-2.5-0.7-3.4c-0.5-0.9-1.2-1.4-2.1-1.4c-1,0-2.1,0.6-3.4,1.9c-1.3,1.2-2.4,2.7-3.4,4.3l-1.1,6.7l0.1,0
		c1.1,0.3,2.3,0.5,3.7,0.5c2.3,0,4-0.9,5.1-2.7C67.7,23.6,68.3,21.6,68.3,19.4z M73.3,11.4c1.3,1.7,1.9,4.1,1.9,6.8
		c0,1.8-0.3,3.7-0.8,5.4c-0.5,1.7-1.3,3.4-2.4,5c-1.1,1.6-2.6,2.8-4.5,3.8c-2,1-4.3,1.4-6.9,1.4c-1,0-2.3-0.1-3.9-0.3l-0.2,0
		l-0.3,2.8c0,0,0,0.1,0,0.1l-0.8,5c-0.1,0.8-0.8,1.3-1.5,1.3h-3.7c-0.5,0-0.9-0.2-1.2-0.5c-0.3-0.3-0.4-0.8-0.4-1.3l4.8-30.2
		c0.1-0.8,0.8-1.3,1.5-1.3h2.4c0.4,0,0.8,0.2,1.1,0.5c0.3,0.3,0.5,0.7,0.4,1.1L59,13.4l0.3-0.4c0,0,2.3-2.8,5.8-3.9
		c1-0.3,1.9-0.5,2.8-0.5C70.2,8.8,72,9.6,73.3,11.4z M159.1,9.2h-2.9l0.6-4.1c0.1-0.5-0.1-0.9-0.4-1.3c-0.3-0.3-0.7-0.5-1.2-0.5
		h-2.9c-0.7,0-1.3,0.5-1.5,1.1l-1.4,4.8h-1.6c-0.8,0-1.4,0.5-1.5,1.3l-0.4,2.2c-0.1,0.5,0,0.9,0.4,1.3c0.3,0.3,0.7,0.5,1.2,0.5h1
		l-1.7,11.1c-0.1,0.7-0.2,1.4-0.2,2.2c0,2,0.5,3.4,1.6,4.4c1.1,1,2.7,1.5,4.8,1.5c1.3,0,3.1-0.5,3.3-0.6c0.2-0.1,0.5-0.2,0.5-0.2
		c0.1,0,0.1-0.1,0.2-0.1c0.5-0.2,0.7-0.7,0.8-1.2l0.3-2.3c0-0.5-0.1-1-0.5-1.3c-0.1-0.1-0.2-0.2-0.3-0.3c-0.1,0-0.2-0.1-0.2-0.1
		c-0.1,0-0.2,0-0.8,0c-0.1,0-0.3,0-0.4,0c-0.3,0-0.4,0-0.5,0c-0.2,0-0.8-0.2-1-0.4c-0.1-0.1-0.5-0.5-0.5-1.8c0-0.1,0-0.3,0-0.6
		l1.6-10.2h3.3c0.7,0,1.4-0.5,1.5-1.3l0.4-2.2c0.1-0.5,0-0.9-0.3-1.3C160,9.5,159.6,9.2,159.1,9.2z M100.2,9.9
		c-0.3-0.4-0.8-0.6-1.3-0.6H95c-0.7,0-1.3,0.5-1.5,1.1c-0.3,1.1-0.9,2.4-1.9,3.9c-1.3,2-2.3,3.3-3.2,3.9l-0.1,0.1
		c-0.3,0.2-0.8,0.4-2.5,0.7l-0.2,0l2.7-16.8c0.1-0.5-0.1-0.9-0.4-1.3c-0.3-0.3-0.7-0.6-1.2-0.6H83c-0.8,0-1.4,0.6-1.5,1.3l-4.7,29.7
		c-0.1,0.5,0.1,0.9,0.3,1.3c0.3,0.3,0.7,0.6,1.2,0.6H82c0.8,0,1.4-0.6,1.5-1.3l1.2-7.8h2.3l3.2,8.1c0.2,0.6,0.8,1,1.4,1h4
		c0.9,0,1.6-0.7,1.6-1.6c0-0.2,0-0.4-0.1-0.6l-3.7-9.4l0.1-0.1c1.5-1.4,3.1-3.3,4.6-5.7c1-1.6,1.7-3.1,2.1-4.5
		C100.5,10.8,100.4,10.3,100.2,9.9z M46.5,7.2c1.5,0,2.7-0.4,3.4-1.2C50.7,5.2,51,4.2,51,2.9c0-1-0.3-1.7-0.8-2.2
		C49.6,0.2,48.8,0,47.7,0c-1.5,0-2.7,0.4-3.4,1.2C43.5,2,43.1,3,43.1,4.3c0,1,0.3,1.7,0.8,2.2C44.5,7,45.3,7.2,46.5,7.2z M47.7,9.2
		h-3.7c-0.8,0-1.4,0.5-1.5,1.3l-3.3,20.8c-0.1,0.5,0.1,0.9,0.4,1.3c0.3,0.3,0.7,0.5,1.2,0.5h3.7c0.8,0,1.4-0.6,1.5-1.3L49.3,11
		c0.1-0.5-0.1-0.9-0.4-1.3C48.6,9.5,48.2,9.2,47.7,9.2z M37.1,0.9c0.3,0.3,0.4,0.8,0.4,1.3l-3.6,23.1c0,0.4,0,0.6,0,0.8
		c0,0.8,0.2,1.3,0.4,1.6c0.3,0.3,0.9,0.4,1,0.4c0.3,0,0.6,0.2,0.9,0.5c0.3,0.3,0.5,0.8,0.4,1.2l-0.2,2.1c0,0.4-0.2,0.8-0.5,1
		c-0.3,0.2-0.6,0.3-1,0.5c-0.4,0.2-1.5,0.5-2.3,0.5c-1.9,0-3.5-0.5-4.5-1.3c-1-0.9-1.5-2.2-1.5-3.8c0-0.5,0-0.9,0.1-1.5
		c0-0.2,3.9-25.1,4-25.4c0.1-0.8,0.8-1.3,1.5-1.3h3.7C36.4,0.3,36.8,0.5,37.1,0.9z">
  </path>
  <linearGradient id="SVGID_1_" gradientUnits="userSpaceOnUse" x1="138.0442" y1="126.6971" x2="147.3355" y2="117.439" gradientTransform="matrix(1 0 0 -1 0 171.7887)">
   <stop offset="4.110000e-02" style="stop-color:#FFF300">
   </stop>
   <stop offset="0.2727" style="stop-color:#FFF300">
   </stop>
   <stop offset="0.5022" style="stop-color:#FFE500">
   </stop>
   <stop offset="0.8126" style="stop-color:#F2A930">
   </stop>
  </linearGradient>
  <path class="st1" d="M143.9,49.7c0,0,2.3,1.2,3.5,1.6c1.1,0.5,1.2,2.3,0,2.9c-1.2,0.6-1.6,0.7-1.6,0.7s0.2-0.5,0.2-1
		c-0.1-0.9-2.6-1.6-4.3-2c0,0-1.3-4.1-1.9-5.2c-0.6-1.1-1.8-1.6-1.8-1.6l2.8,0c0,0,1,0,1.4,1C142.6,47.2,143.9,49.7,143.9,49.7z">
  </path>
  <linearGradient id="SVGID_2_" gradientUnits="userSpaceOnUse" x1="139.0242" y1="109.6989" x2="148.3318" y2="118.9729" gradientTransform="matrix(1 0 0 -1 0 171.7887)">
   <stop offset="0.1874" style="stop-color:#F2A930">
   </stop>
   <stop offset="0.4978" style="stop-color:#FFE500">
   </stop>
   <stop offset="0.7273" style="stop-color:#FFF300">
   </stop>
   <stop offset="0.9589" style="stop-color:#FFF300">
   </stop>
  </linearGradient>
  <path class="st2" d="M143.7,58.6c0,0-1.1,2.3-1.6,3.5c-0.5,1.1-2.3,1.2-2.9,0c-0.6-1.2-0.7-1.5-0.7-1.5s0.4,0.1,0.9,0
		c0.9-0.1,1.6-2.6,2-4.3c0,0,4-1.3,5.2-1.9c1.1-0.6,1.6-1.8,1.6-1.8l0,3.2c0,0,0,0.6-1,1C146.2,57.4,143.7,58.6,143.7,58.6z">
  </path>
  <linearGradient id="SVGID_3_" gradientUnits="userSpaceOnUse" x1="131.2475" y1="117.9787" x2="140.5227" y2="108.7369" gradientTransform="matrix(1 0 0 -1 0 171.7887)">
   <stop offset="0.1874" style="stop-color:#F2A930">
   </stop>
   <stop offset="0.4978" style="stop-color:#FFE500">
   </stop>
   <stop offset="0.7273" style="stop-color:#FFF300">
   </stop>
   <stop offset="0.9589" style="stop-color:#FFF300">
   </stop>
  </linearGradient>
  <path class="st3" d="M134.7,58.4c0,0-2.3-1.1-3.5-1.6c-1.1-0.5-1.2-2.3,0-2.9c1.2-0.6,1.7-0.7,1.7-0.7s-0.3,0.5-0.2,1.1
		c0.1,0.9,2.5,1.5,4.2,1.9c0,0,1.3,4,1.9,5.2c0.7,1.4,1.7,1.6,1.7,1.6l-3.2,0c0,0-0.6,0-1-1C136,60.9,134.7,58.4,134.7,58.4z">
  </path>
  <linearGradient id="SVGID_4_" gradientUnits="userSpaceOnUse" x1="130.3095" y1="116.4834" x2="139.5948" y2="125.7346" gradientTransform="matrix(1 0 0 -1 0 171.7887)">
   <stop offset="4.110000e-02" style="stop-color:#FFF300">
   </stop>
   <stop offset="0.2727" style="stop-color:#FFF300">
   </stop>
   <stop offset="0.5022" style="stop-color:#FFE500">
   </stop>
   <stop offset="0.8126" style="stop-color:#F2A930">
   </stop>
  </linearGradient>
  <path class="st4" d="M134.9,49.5c0,0,1.1-2.3,1.6-3.5c0.5-1.1,2.3-1.2,2.9,0c0.6,1.2,0.7,1.5,0.7,1.5s-0.5,0-0.9,0
		c-0.9,0.1-1.6,2.5-2,4.2c0,0-4,1.3-5.2,1.9c-1.6,0.8-1.6,1.7-1.6,1.7l0.1-3.2c0,0,0-0.6,1-1S134.9,49.5,134.9,49.5z">
  </path>
  <path class="st5" d="M10.6,60.7H0L2.3,46H13l-0.4,2.9H5.3L4.8,52h6.3l-0.4,2.7H4.4l-0.5,3.2h7.2L10.6,60.7z">
  </path>
  <path class="st5" d="M23.1,60.7h-3.7l-1.5-3.1l-2.6,3.1h-3.5l4.7-5.5l-2.8-5.5h3.7l1.5,3.2l2.7-3.2h3.4l-4.7,5.4L23.1,60.7z">
  </path>
  <path class="st5" d="M32.6,49.5c1.1,0,1.9,0.4,2.5,1.2c0.6,0.8,0.9,1.9,0.9,3.1c0,0.8-0.1,1.7-0.4,2.5c-0.2,0.8-0.6,1.5-1.1,2.3
		c-0.5,0.7-1.2,1.3-2.1,1.8c-0.9,0.4-2,0.6-3.2,0.6c-0.5,0-1.1,0-1.8-0.1l-0.1,1.2L27,65h-3.2l2.4-15.2h2.5l-0.1,2.3
		C29.7,50.4,31,49.5,32.6,49.5z M31.6,52.3c-0.4,0-0.9,0.3-1.5,0.8c-0.6,0.6-1.1,1.2-1.5,2l-0.5,2.9c0.5,0.2,1,0.2,1.7,0.2
		c1,0,1.7-0.4,2.2-1.2c0.5-0.8,0.8-1.7,0.8-2.7c0-0.6-0.1-1.1-0.3-1.5C32.3,52.5,32,52.3,31.6,52.3z">
  </path>
  <path class="st5" d="M42.8,58.1l-0.3,2.5C41.8,60.8,41,61,40.2,61c-0.9,0-1.6-0.2-2.1-0.6c-0.5-0.4-0.7-1-0.7-1.8
		c0-0.2,0-0.4,0.1-0.7l1.9-12.4h3.3l-1.8,11.5c0,0.2,0,0.3,0,0.4c0,0.3,0.1,0.6,0.2,0.7c0.1,0.1,0.4,0.2,0.7,0.2
		C42,58.2,42.4,58.2,42.8,58.1z">
  </path>
  <path class="st5" d="M49,61c-1.5,0-2.7-0.4-3.5-1.2c-0.8-0.8-1.3-1.9-1.3-3.3c0-2.1,0.6-3.7,1.8-5c1.2-1.3,2.8-1.9,4.7-1.9
		c1.6,0,2.8,0.4,3.6,1.2c0.9,0.8,1.3,1.9,1.3,3.3c0,2.1-0.6,3.8-1.8,5.1C52.7,60.3,51.1,61,49,61z M49.3,58.2c0.9,0,1.6-0.3,2.2-1
		c0.5-0.7,0.8-1.6,0.8-2.8c0-1.4-0.6-2.2-1.9-2.2c-0.9,0-1.6,0.3-2.2,1c-0.6,0.7-0.8,1.6-0.8,2.9c0,0.7,0.2,1.3,0.5,1.6
		C48.2,58.1,48.7,58.2,49.3,58.2z">
  </path>
  <path class="st5" d="M56.6,60.7l1.7-11h2.6l-0.1,2.6c1.1-1.9,2.5-2.9,4.2-2.9h0.2l-0.6,3.3c-0.7,0-1.4,0.2-2.1,0.7
		c-0.7,0.4-1.3,1-1.7,1.6l-0.9,5.6H56.6z">
  </path>
  <path class="st5" d="M75.9,52.8c-0.1,2.6-2,3.8-5.7,3.8c-0.5,0-1,0-1.5-0.1c0.1,0.6,0.3,1.1,0.7,1.4c0.4,0.3,1,0.4,2,0.4
		c1.1,0,2.2-0.2,3.4-0.6l-0.5,2.6C73,60.8,71.8,61,70.5,61c-1.9,0-3.2-0.4-4-1.2c-0.8-0.8-1.2-1.9-1.2-3.4c0-1.9,0.6-3.5,1.7-4.8
		c1.2-1.3,2.7-2,4.6-2c1.5,0,2.5,0.3,3.2,0.9C75.6,51.1,75.9,51.8,75.9,52.8z M68.8,54.6c0.1,0,0.4,0,0.7,0c2.1,0,3.2-0.5,3.2-1.5
		c0-0.3-0.1-0.6-0.3-0.8c-0.2-0.2-0.5-0.3-0.9-0.3c-0.7,0-1.2,0.2-1.7,0.7C69.3,53.2,69,53.8,68.8,54.6z">
  </path>
  <path class="st6" d="M85.1,60.7h-3.4L84,46h6c1.8,0,3.1,0.3,3.9,1c0.8,0.7,1.1,1.6,1.1,2.9c0,0.6-0.1,1.2-0.2,1.8
		c-0.1,0.5-0.3,1.1-0.6,1.6c-0.3,0.5-0.7,1-1.2,1.4c-0.5,0.4-1.1,0.7-1.9,0.9c-0.8,0.2-1.7,0.4-2.7,0.4h-2.6L85.1,60.7z M86.3,53.3
		h2.4c2,0,3-0.9,3-2.8c0-0.6-0.2-1-0.5-1.3c-0.3-0.3-0.9-0.5-1.7-0.5H87L86.3,53.3z">
  </path>
  <path class="st6" d="M100.9,58.1l-0.2,2.5c-0.8,0.3-1.6,0.5-2.4,0.5c-0.9,0-1.6-0.2-2.1-0.6c-0.5-0.4-0.7-1-0.7-1.8
		c0-0.2,0-0.4,0.1-0.7l1.9-12.4h3.3L99,57.1c0,0.2,0,0.3,0,0.4c0,0.3,0.1,0.6,0.2,0.7c0.1,0.1,0.4,0.2,0.7,0.2
		C100.1,58.2,100.5,58.2,100.9,58.1z">
  </path>
  <path class="st6" d="M113.9,49.8l-1.8,11h-2.5l0.1-2.3c-1.2,1.7-2.6,2.6-4.4,2.6c-1,0-1.7-0.3-2.2-0.8c-0.5-0.5-0.7-1.3-0.7-2.2
		c0-0.4,0-0.7,0.1-1l1.2-7.2h3.2l-1,6.4c0,0.2-0.1,0.4-0.1,0.7c0,0.8,0.3,1.2,0.9,1.2c0.5,0,1-0.3,1.5-0.8c0.6-0.5,1.1-1.2,1.6-1.9
		l0.9-5.6H113.9z">
  </path>
  <path class="st6" d="M114.4,60.4l0.6-2.7c0.1,0.1,0.5,0.3,1.3,0.4c0.8,0.2,1.5,0.2,2.2,0.2c1.4,0,2.1-0.3,2.1-1
		c0-0.3-0.2-0.5-0.5-0.6c-0.3-0.2-0.8-0.3-1.3-0.4c-0.5-0.1-1-0.3-1.5-0.4c-0.5-0.2-0.9-0.5-1.3-0.9c-0.3-0.4-0.5-1-0.5-1.6
		c0-1.3,0.5-2.2,1.4-2.9c0.9-0.7,2.3-1,4.1-1c0.6,0,1.2,0,1.8,0.1c0.6,0.1,1,0.1,1.3,0.2c0.3,0.1,0.5,0.2,0.6,0.2l-0.5,2.6
		c-0.2-0.2-0.7-0.3-1.3-0.4c-0.6-0.1-1.2-0.2-1.8-0.2c-1.4,0-2.2,0.3-2.2,1c0,0.2,0.2,0.4,0.5,0.6c0.4,0.1,0.8,0.3,1.3,0.4
		c0.5,0.1,1,0.2,1.5,0.4c0.5,0.2,0.9,0.5,1.3,0.9c0.4,0.4,0.5,1,0.5,1.6c0,1.3-0.5,2.3-1.5,3c-1,0.6-2.3,1-4,1c-0.6,0-1.3,0-1.9-0.1
		c-0.7-0.1-1.1-0.2-1.5-0.2C114.6,60.5,114.5,60.5,114.4,60.4z">
  </path>
 </g>
</svg>